/* XPM */
static char *c4f77a4df0ad438ea89a3cd2118cf303ubcsCX2Oh3j8WmGE[] = {
/* columns rows colors chars-per-pixel */
"128 128 19 1 ",
"  c gray43",
". c #5F5E5E",
"X c #585858",
"o c #515151",
"O c #6A6969",
"+ c #646464",
"@ c #797878",
"# c #727171",
"$ c #010101",
"% c #757474",
"& c #7F7E7E",
"* c #414141",
"= c #494949",
"- c #373737",
"; c gray17",
": c #1D1D1D",
"> c #898887",
", c gray6",
"< c #959594",
/* pixels */
"$$$$$$,:,:;*--;*=-;--*=*oo=*=XX=-oXoooXXXXX-:,,::::::::;;;;::;:;;;-;-**-*XX+O+.X.+++.Xooo*-*-*oo-:,,$$$$$$$$$$$$,,:;::::,,$$$$$$",
"-*=X**-:=Xoo.*;o#o=oo.#+*X==XXo.ooXooX...+XoXo==o.+..**X=--*oXXo-*o*==*=Xoo*.#%O+.@#oXo**-:;;**;;-.XX-::-*--*ooX+XX..Xooo==**---",
"#@>&&@O+&@@O +X--X++Xo*-=X++. %#@&@@&&&&>>>>>&>>>&>>>@&@%@>>>&>>>@@&o-*=Xo=**O% O++o===X=**=oXo****-=oX--%@ ++O++OXoX.o+&&@@@%##",
">&&&@@&&@@&>&&&oo=*oXo%&>>>>>@@&&%#@&%#&&@%% O@  @%%&>&@@#&@@@ #@%%>>o-*-*=o**+O+XOX..+@@>&&&>>>>&@&%&@%.+&&&+O#O.+O .O&#@&#%@&>",
"OOOO O%@## #@#%O-===o%> #%# %#+@O. +.+@#%%+.  OOO OO+ +#@@###%O+O+++  --=--=o >>>>><>>>>&@%@&%%&&@&&&&>>>>&&&@%+==oo.X+O#..++.##",
" %++.+.O@@@OO O.*oOX=O%O++@ X+%+XXX.O%O##O  #%%@# +.+%#    +  #% %%O. .-====+%&&&&&@@OOO#+O#%#OOO  +   ##&>&&&+*-;-ooo+ +O..O+X+",
"oO+o.+O+ O  #.+Xo-;o=+ O .+ +O+X+O..# +O%  # #@  +...O#+#@#O+     O+O@X$,-=o #OO#  O%O##.+ O+OOO#O   O +O##@@%.X..oX-:.+...+O.++",
"oo.%O+#O+   +O@o-Xo=*+ OO+o %..O  O.X+ # O++   %# +O O ##++%%O.  O #O o:**-*.%OO  +OO##O++++O++   #O..+OOO+% O+.o.OX*:XO@  O.O+X",
"+.X+.%+..+ O.X+--oo==.#++. .+++ .X+O+o.    O ++O+++O #O#+.+# +.O# +O+.X-;-;=.+O O +.+O++OOO.  O %#OO% .X.O +.Xo=**XOO==.+.X.OO O",
"X++..oX.+OO@%O+:;=o*=%OO% +.+%@ .++.XOOO # OX+O O++++.O O##++ +O+O ++ =,$$,-+  +++OO..+#%%OO#  %%%#  OX.O+.+oo=*.OXo;;o+.+ ++ .O",
" .   O  ##  O..;;*o.o@@% +O+O# #O %X+ ..O# #  #O+++oO#..O %#O ++   X.O=,,:;-o.O.O ##%O   # #  OOO#@ O+.+.X++.*:*Xo-**;X+++..+O# ",
"OO.X+ O .++ OO.:,::=X#%##  ++OOO OO@%+OO. # #OOO++X..# +.O  OOO.X++++.*,-;;*=+O#  %@@&@% O+ # %###+O+.O.X.#+=;;,:o.oo*X%OOOO.+ #",
"#%OO+++. #O##%+::==*.O%@%% ##+OOO . O+O%O   OO #.+O+++ OX+##O++O+OO + -;:::-=O #OO####@OO OO   #O++O+  +  ..o*--$,-*==X%#O% ## #",
"@@%#+X.X+#@#+ *;+OX*..+O+O##O+ ###++O@% @@  ##O+++X+ +O++.O++OO+ OOO.O**;$,;ooX.+.O#%  % OO  O  O#+O   #. %X**;;,,;..*.O %  ++ #",
"oXO..%@@@%@#O ==%=XoO + %%#O  %@#O O+ OO  #%   ++.++.OOXO +O.+O++ ###.;=*;-;*.O+ %O  # @%O+ O ###+.+.O  %O+.o-;-**;-XX+@#.=o.o=o",
"%OXoX=oX.O+@#O.=++=o% O%@%   O # +OO..#O.+##% OOO+#+O.X  O O##+.+#.o O;==***= # #   OOOO#@@ #   O+OOOOO ++O.**oo.=:,;o.+X.#% @@%",
"# @@#  OXX+o%&o=%##X%%O#   %OO#  O.++++O  #%%% +O##O+O ++..++O%%OOOO%X:==X=-*o++O  O+ ##  %%  ## + %++% .=Xo***XX-::;=X+#%% O %%",
"##### @%#%@.=+oo+OOXO @@%#%% O+O# ##O +O   @% O# O.O X.+OOOOO+ OO.O# ** O+.;*oO%%OO+O  %## %%##%%O %# O.++Oo=*=o*---;-O#% O %   ",
"%%##%&@ %  @@+oX=*==X*==O%##%+XO  #+O+#%%%%%#%##  O + .+O +++O%#++#OO*= ++o;-=X+O +.#O  %%#%%%O#@@@ ##.+ %.**-=o;::;,;.  # ++O %",
" %  ## #  O+ %o-;-= % +.X..XO##%#% +.+. %@#O#O#%@#+XXO+.++oX +.  #  @*o#++.*:;-o.O#&# ##   ## ## #%%%O O+.*;;;XoX#O;:-.  OO.OO %",
"  O%@@@%%%++  ;-O *o@@%@%O +=O +O+O +%# #%@@%#  +++ @Xoo;=OO @+.  #%#*.O+++=$:;;-o.+%O   O## %% #@%%%#X=-:,,$;OXOOO+X;=###O #  #",
"=o.XX.+O++O+.-$  .-:+#%+  #+Xo=.+++O%%####O.Xo=o=*--;=XXooo-:-+@ %#+-:o.+O+X,$,$,,:-=.#@%@ O##%@#O OX=-:$$$$,.+.==.+#:$-o=*====o",
"$,:,,,::;:::,$,OX=-$,;;*=oo==*,::-*XXo==-;:,,$,$$$$$$;*+=*.+o*:;=---$: OO+.O*$$$$$$$$,;-o.O++OO.X=;:,$$$$$$$-X;:;;o+.=$$,$,$$$$$",
"$$$$$$$$$$$$$$:Xo.=$$$$$$$,,$$$$$$$$$$$$$$$$$$$$$$$$$$$$,::,::,$$$$$$:o=*X.X.,$$$$$$$$$$$,,:,,,$$$$$$$$$$$$,-::-OX:=..$$$$$$$$$$",
"$$$$$$$$$$$$$$-...o,$$$$$$$$$$$$$$$$$$$$$$$$$$$$$$$$$$$$$$$$$$$$$$$$$-oo==*--;,$$$$$$$$$$$$$$$$$$$$$$$$$$$$,***O o;:=-$$$$$$$$$$",
":,,,$$$$$$$$,-=X.++o,$$$$$$$$$$,$$$$$$$$$$$$$$$,,,:,$$$$$$$$$$$$$$$$;=---;::-.o*-;:,$$$$$$$$$$$$$$$$$$$$$$,:-XO.o-;,$$::,:,,,:::",
"X=*::---;;=oX+Xo=X. +*;:,,,,:;=oXo-::::,,;;;-*;*o**;;==;,$,;--::;;*Xo*-:--::$:=oXo=X=;,,,$$$$$$,,,,,,::,$,,$:*X.o.+;:=o***=:=+=*",
"-==-;*X=-*=ooo***==oX %@+O #@@&%&>@+.-,:;=XXo*=ooOO@@@ +*;oO%# %&%X %%%%.XX+o=+O+.XO .XX====*.+oX*o:,;o*;$,;-*:,*O++oo++o;:*X;,-",
";;*..-=*o X*o===oX+@><<<<>>>>>>>>>>>OoXo=-=o=*-=+O O#X**X>>O#%&<<&XX#><><<>&>>>&>><><>>>&&&&#*-***=**:,--;=--=+.O%%%@&>>&%+@+==*",
"****o=***=oo.O#&><<<>>&&@@&@#@#%@@><<<<<<<<><@Xo==..X**.>>& =O&#@&O;;&@@@@@%&@## @%%%@&&&>>><&o-oX*=;:*&>>%o ><>><>><>>><<<<<<>X",
".Xo*;*=***=&<<<<>>&&@OO # %%@%#@&%@&&>&&&&@&&>>%o==o=o+@&%O#o-&&%% =X%%#%#%###%@%@@# % @@%#%@&&+.XXoXO>>OXo @>&%&&&&@%##XoXXoX O",
"+@>%-:-;;;%<>>&&@%@#%# O # #%  #%###%%@% #% %@&& Xo=oXo+@##O#X-+ +Oo*# %#%#O+  ##%##  @  OO##O##X-*oO..-oO%@+O O#OO%% Oo*.@%+XX+",
"@#@&+***;-@>&@## #%%#  O  #O #%# @%# %%@%%%%%%%@#o*;***X##% ++-. OO=o####%%@@%%  ##  OO @ X &@OO=*=OO==oO +XXX...#%+..=.&%O %&>>",
"%#.OXX=oX*O@%#  #%%%#O+O#   O# %@#### %#%##  ##@&=;.oXoo#OO++.. OO+.;-#%%##%     %@O+ @%o;$:o.  =oO+o+>& +O.O.X.OO...Xo+++..+ @%",
"O+o+*;*=-*#%#OO#O##OO   %@O #### %%+O%%@@%## O##@Oo;-.==%##+XOX* +OX*,;&@&@#%% @# %&@@o;-X@.,:=oo+.XXo %# +..+OXXXX++*o+ O.. O##",
" Ooo;*o=*= ###%%&%##%@#@%@#O#@@@@% +%@%@%%  ##  ##oo*-*=%#@%%+ o=@O+&@;;;;o@&&&@&&.o=;*%&@@&&o*--*-=Xo+ #+oXXo=+.o..X.O+O+++   #",
"O+=;:-Xo.o#@ @# %@@%@%### %%#@#%% O##O%##  %##O+ %.X..=* OO+++ %+.+%#>&*..-;*oXoo;-###>@ +++ &%.-*=ooXO+++O++ #.o+ .OO.+++ #+O++",
" .o*,;oXX.@% #% O %@%@@@%# O%@&@%#%# %%&% ##  .O@#+o.+o* #%%@# +  .. %@>>><@XXXO.+&&%  O#O+O #%*-Xo*;=O O++O+ XO#++#  OX+OOO## %",
"OO.=;::-*o# &% %@@ %&@@  %%O%% #%%##%&&# %%#%%  O +X +=;O%%%+ ##  @+=.@% O %@&@ % #O+O %#@  @# =*=-:;=.  OO++.Xo%#OO##@ # ++O%@ ",
" O=::-:,:=O&##@@%%%%#O#%#OOO#% %@@@%@%%%##%@# %%.O++O+o;+%OO%%#%#### .o &%# #   .+#%#OO %###@%@O*;:;;X+O%% +++ oo##..+  OOO&@   ",
"O+*;--:--.X%&%%%###%# #%@OO# %%#@@@&@% O @# O+  %O.+#%@o+@@@&&&@# %@@&O*o+% ++ #OOO+   O#@%@##@@=*=**o#%*X=o*oX*+####@##% %##%%%",
" o-;-*;;-o#*@&%# ##@%%O#%%#%% @@ #@@@@%##%@#O@  @@.oOO.- %# #@&%%%####@%.=-o.XXX.o**=oXO%# #%#  X=XO*=.=-;-X=X-= O  ..+ #@%O  %#",
".-:,=*-,:- -;.#@% # #%  %% ##O%@ #@@@@%@# %#O  ##%+*o+o*OOO#  #%#%  #@&@&&#%#@%%O%&>&#=*%   # .+.oXX=;=:OO%  O  ++ooXX.++.#%@%++",
";,$:-:,:$:O@-;%O+@%O%## #%###%OO@#O%%##%O %%% O   X-X==o.+ #O#%%%%%@%#%#%@  # ##%    @&o*oX.+.++-o.Xo--+# .X+##++O++.O +++OOO++.",
"$$$;-;*o=,X%X*oo;*+#O#    %%@%%# #%% O +...O# O #O:;X=.-*@ #    %   %%# %%@@%#%%%@  OOO&@  oooo;,o.o=*o.++..X.++O @#%O #%#++.OX;",
"$$,=oooo=:,o@@#@@OXo=oXO.XXX===*=o.++++.O+.Xo==*=;$*X-=*$-.+O.+.+ +OO###@#### % #% %%## # #&% =$$.X.o:-=X+XoX...O ++OO   OO X*,$",
"$$=..Xoo=:$$::::::--**;:,,,$$$$$$,$,:::;;;:,$$$$$$$:-=*;$$,,:,,,,::-=X+OOOO O ##%# %%%@% OO +=,$$;*XX,$::::--:-o....O+++X=*;;$$$",
"$;o.XX=oO*$$$$$$$$$$$$$$$$$$$$$$$$$$$$$$$$$$$$$$$$,-;:=.,$$$$$$$$$$$$$,:;----=ooX+O++  # Oo-:$$$,*==X:$$$$$$$$,$,;;;::,,,,$$$$$$",
"-=-*oX=**o:$$$$$$$$$$$$$$$$$$$$$$$$$$$$$$$$$$$$$$$;=-;*X=$$$$$$$$$$$$$$$$$$$$$$$,,::;==-;,$$$$$,=.o=*:$$$$$$$$$$$$$$$$$$$$$$$$$,",
"Xo--=X.*;-=;$$$$$$$$$$$$$$$$$$$$$$$$$$$$$$$$$$$,,:=XXX*.&O:$,$,,$$$$$$$$$$$$$$$$$$$$$$$$$$$$$$,X#OX;;*:$$$$$$$$$$$$$$$$$$$$$$$;o",
"=ooo*-*o-:-*--:;;:;--::--**:,:::::;:;-**oX+O+O+o**+ .O.o@&+.O.+.oo=;:$$$$$$$$$$$$$$$$$$$$$$$$,;***;,;;;*---;:,$$$$$$$$$$$$$,;=X=",
"X*===;::-=**==o===*=.XXo;;;::-=--;o><<<<<<<<><>>><<>>><>>>>>&>>>><<>>%+=**:$$$$$,,$$$$$$$$,;;. XXo.==*;-*-*=*****;--***-*--.%#Xo",
"oo-;==*=o+XOOo**-***--;o.o-;*--*-*>&&@@@@%@@@%##@%&# %@&&@ @&%@%@@@&>><<<<<@+=:$-o=o*;:--=O.O@+ %+X.Xo.Oo-*;,$;=..o-;;=o=-*.X=-*",
"%&>>>>>>>>><>>>@%@%OX=-;oOO++*:-;#&@&&@%%%#%##%+ %%@&& #%## @##%%%@%@@&&>><<<<<=$=o**;=XOOX.O.*oO%@ XO>&+ ++o*oo=**;:;-***=-XO+O",
">>&>>>&&@&&&&>&><<<<<<<&*-=X.+.o-%&@%%&@@@@#% %%  OO ## #%% O### #@%%@%@@&&&>><<;:=:,-;-oX.+.o=.>><%=>>&&&%%%@O@@%Oo*=.#@>>>><<<",
"@##@%%@&@@@@%@&@@@%%@&>>>=-*XoXO+=++OO..O#@@@@ #%%  +O%##  # +++O#  %%#O#&&%@&>>o,:**=++=X X:;X@&%@Xo%O+OO%%#..O%#&><<>&>>>>&@&&",
"% @%%@%@@# %#%%%@@ %@%@ %%-**-:;*@+X;-oo=oXXoX %@#Oo. +O #  ##+++##O O O+ %&@%&&o;;-;X+.XX*:* @%O%@*=OO# ##  +..+++O# +O##%@&@##",
"#%#%%% ###%#%#%%%#@@##%%@ ;;:$,$:%%&&@@%&%O #+.XoXXX-X@#OOO OOO+++ #  O+ #%%%%O@o,,:-*X#%X:-&>@%OO =.#  XOOOOOOOX...+#@%#@#%@#% ",
"#  %#  %%@%  # @@@%#  %  .-,,;,,=##O O  OO  O @@%@&%@=*O ++O OO#O%#  #%#@%# #  #%o=.X==XX*O<>>&#%%#.o==o O+O.+*.O O++O+## OO %%%",
" #@%&&&%%@#@@%@@%&>&@#O#@o;;;-oXo #%  %#%%%#% O  O O%&o=@#% O %%@##  #%%#  ##@@#@#XX.ooo-.>>>&#%%=;*---*X.+X.o=+O+#% O    #   ##",
"%## .oX#@@ .X+OXO+=o %#%#-,;;=+.o %#OO.#%  OOO+  #     oO##O+ # #@ %%%%#%@%%#%%@@%o%&+.=X@&&&% @OoOXo.....X+.o+ O #%%@# %%%%%%%%",
"% @+,=.*XXoXo=-ooo=;;=@# :-*o.+X.O+ %O+O  OO#O#   %%##O+o## ##O @##%@%@%# O##%%%@.-o..=*. &&  ## oX@@O#++OO... O #%%%#%#%% ### %",
"@%##=-+<&@@&&&>>&&>O;:;#X,-=X.X*. +..% +OO+++%#O+..+ ## o* ##%  #%@%#  %#OO%#%@%@*o.***=%#%@ O##@O=# @ o+OO+##O %%%@@@@%%OOO+++O",
"#@@ ooX@%&##  ##  @@@>.*;,X.=*:-.   OOO  ..+ O%#.+O+O O#X-=@#@% # ######@@##%##%+,o # X.      ###o;o@@%*X+.O @# ##%@&% O##% .+  ",
"O%@ @-;##%&@#@%%%%#%@O& ,;O%.-;*+.OOO O +  ++OO %%@%# %o-+-+%%@@%%#%####% ## @#%-$-*==- @%%%#@ OO;--@%=o   #O+OO #@@ +#%%@@ + #+",
"OOO %oo%#%%%#O  %%### %@:-+X;-*:##%#%  # O# +%OO% O# #%O+;+&%@#%@%%%%%#% O+ @@@#,,-,:;-%%##@@###O=O=Xo.+XO%#O O+%%%%@  @%%#    O",
"#  #.*-o@ ###@%%%#%#O#@#;;=*==-;O@%%%%#  O O% +OO+..+##O% -+&#  ##%%##@#%%#%%&@*$-oo*--#++@##%#%+o;-=*O++.O+O O+OO%OO % ###%% O%",
"O O@.ooX@% %@#%# %%#%% OoXooo*=*.#%%%%###O.+OO  O+OO O+%@=X+ @%%%#@@@&@@@%@@@O-$,=.+.;* +O #%O # X=.O.O.X++  O+O.  #O%  @%@ #OO+",
" O X-+>O%% %%%%%##%% %@%Xo*=o*X=X@%#@% %@ # %  %# OO# #%#XXOO#%@#@#   %@%%%#=,$$*O+#o,o .O.OOO # %@X*.+XXXX+# .+ %++##O #%#O  + ",
"%%*=*O& +O %%#@%@%  %  #o--;*X.**% %% O#%%@O+ %%#%  +#O OOo.%#@@%% ##%%%%%#+,$$:%%%.::* % %+O #OO #+.+.+O+++ O.+#O%#OO +O###% #%",
"&*O>&%@%@%  O#  ##### %&*-;-*=-;;O%%  %##%%OOO%@@%@@##% #%+=%#@% O#%%# #%#@.$$$;;*;,-=*OOO%#OOOO%  O++++OO.O++ +.... ++OOO# # %@",
"=.&@@@@% %%%#### O+XXXXo;**X+X.X:+    %@%#  +OO##%# %O#  @O=O%###%@# ### %%.,$,,,$$;;:;+% OO ## ++ O.O++O+O#+XXoXO+.OOO+O+. ##@ ",
"O@%@@###@@% O+.o-;,,$$$$,o.X= %+:X# #%#%@#O#% #  #   #O++ X;*  %##%    # #@=,---**o=-*,;..X.++##+ OO O+OO+.+#.X+.oO+XX.+O+ ##%+-",
"XX=*****--;;:,$$$$$$$$$$:.o+#% &-;@+O####  %  #%% #  ##% .+o=OO %%# %# #  X,:*=-;==:$,$$,;**----=**=*--*-=oX=X.oX=;;;::,:;-*=.X*",
"$,$$$$$$$$$$$$$$$$$$$$$$;==X.o-=*$o% +%#O%# O ++  O #%##O O *O +OO+.Xo=*-;$$-==-o+=;:;,$$$$$$$$$$$$$$$$$$,$,,::::$$$$$$$$$$$$$,,",
"$$$$$$$$$$$$$$$$$$$$,,,:=X  =--==$$-oX=oo*----;::;*===o..X.=:==-;;,,$,$$$$$,X*-X.o*oX.;$$$$$$$$$$$$$$$$$$$$$$$$$$$$$$$$$$$$$$$$$",
"$$$$$$$$$$$$$,:-*XX=..=oX+.XXooXX:$$$$$$$$$$$$$$$$$$$$$$$$,$$$$$$$$$$$$$$$$;+o==o;:*o=-:$$$$$$$$$$$$$$$$$$$$$$$$$$$$$$$$$$$$$$$$",
":;:,:;;:,;-:,-o.&@+#@.XoX  =o%Oo.X$$$$$$$$$$$$$$$$$$$$$$$$$$$$$$$$$$$$$$$$;o*oX--==**=oo-,;:;;::;;;;;;;;:::,,,,,:::-;,,:,;=;::,:",
".%&@><<&@>>> .o==+#%+O +.**oX.@##&X,$$$$$$$$$$$$$$$$$$$$$$$$$$$$$$$,,:::;;::;*X;,;*=-:*+.--;$$:*o.XoX.o**o=*-**-*oo-,,::*#O+..X.",
" &<<<<<<<<<<<<<<>>>>&@ O.X=Xo=O% #@+=--;;-=oXXo=*;:,,::,,:,:::;-;;=o.%&>>>>>><<<>>>>&%>>&&#+..=*=*=oo.*o&&@Oo--;-=-:,$,*# X++. .",
">><>><><<>>><<<>><<<<<>&&#X+O.=oX.X+&><<><<<<<>>>@ .o*---o*=XXo=*o@<<<<<<<<<>>>><<<<<<<<<<<<<<>%.*--;-#<>&><>+-**-:,$;oXX++ ><<<",
">>>&&&&&>>&>>>>>>&>>>>><%=O%&OXXO.X@><<<<>&&@@@&&>&>>>&+=-:,**-* <<<<<>>&&&&&@%&&&&@@&&&>&&&>&&>&O--O&<@O %&&>&;::::;+ .XX+@><<<",
"  O ##@&@@@&&&&&>>&&&&&>%+@@@@O OXO&&>>&%#%###%%#%%@@@&@o:,::XX+<<<>&>&&@#%%%#%@#@%% #%@#+O+. .%><>>>&#@%#+  +>+,:-;-o.Xo. @%%@#",
"O##OO #%%%@@&&&&>>>>&&>&@%O &@% +oo@@#@&%% %#O#%%%%%%#%%X*oo:;=---+>&&@@&@%# %####%O %@% O+%#+.+##@&@.O%#X+.XO#%*,::=oo..=o% + #",
" +.  #%%%@@&%@@@@&>>>&&&%+*-=+**X-=O@%#O %#O+O#OO @# ###o-==:$*&#X*O@%%%%%@#++  %#O + #%#@@ +# +%%##  OXO+OO% O+.;$-+.. +-;+ # #",
"### %##%@&@@# %%@@&>>>&@%+*-*=o=Xo.%&@&@%# % ####  #  O *-*oo:=%>>X;O@ #%# %%#+ %# O# %#@% % O..X.OO @%.+@O  +++.-**-oX*-;-+  O#",
"# #@% #%#%@&@@&&@@@&>>&&%O=**;-.=oo.==*-o&@%@% % %  O %%o=X.+X*.&+XoX#+%#%%+%%@%# %%O @%%  OO%+..oo. +O&@#OO#&@ Xo;-,:*X.+o %#%#",
"%%#%@@@%&&&@&&&@@@@@&>>&%OXo-$$$:+*;.+ #;;%&%@%#  #O ##%o==XX.*o %&XO#+.O X.##%@@@@% .#%%   ##%%% .o++.+ #@%##  .O*-*$$-+#+O    ",
"#%@@&@#%@@@&@%&@@%@%@&&&%+.Xo=;o-XO >&&<>.-=&%%### ###O o=**oX*X%#+= +O%O++OoO##&@ + @# %#O% +OOO +XX @#O &@#XO + .:$$,,-X+OO %%",
"@%%%@%%%%#%@@&%#%&&@&>&&@Oo=*  ..X@@% O #&>*=  %@@%# OO@o;;;-;:oO+ +=Oo+##  +.+%@#++XO@%@ % OO#+...++%+.O##%%O#=:$,.*;--:=.O+O##",
"%%@ #@%%%%%@%%%%#@@@@&&&@.=o=**=+X@&# %# #%&-:=oXO%@@# %=;XX;,,-   &.=O%%# O% O#%%#OO .ooOO++ O+oo.+.O.X.  O O;$$$o@O.;:,*+%%@%@",
"#%@%#%%  #  #%O%&%%@@&&&%.oOX-;-*o%#  @%%##O# % ooX.++%&=-X..%;,. .+%X.&@#%&@OO%%#%&&==+**..X.++.o.O++%%.+%%+:$,o&O*oo*;*o# %# %",
" %@%  %O+%@@@## %@@@@%&&&.==X+=;;* %%  % OO#%#+ @@#++X=OXXO+O *$-.#..+.o#%%@%@ + @>&*o&#XXO.ooOXo.O%@## OO%O=$:%>X:-o--o,*#% O#%",
"@%#@@%%@%%@#@%%@%@%%&&%&&.=o*=Xo-*%% +%#.O #+ ..O+++@&+oo++  +o$;..+Oo==O   %% =O.o=.@OO-+ O.+.#&  ##&O++# O;,&%-:$:o.X;,= %%@@%",
"####%@%#%%  %@&@%# %@@@@@.=oooXX;*@@%%#%&@#OO.+++O #  %#@oX==.X,$;XX.#+=+#+.O@+-;-=%@#&#oO..%#+++%%  +O X.%X$-&O-$$*X. +Xo+%#@@%",
"%@# %%%%%% %#% #% %@OO#@&.==XoXo==%&@@%%%#  %%O.O#+O%%###+X.o*;,$$:=X.++=.O .+o*-O&### *;@O*o=O+O %%% O+O=-*,;,,,$,-*-;o*=O %#% ",
"O#%&&@%%@%%%#  % O O#% #%Xo.O%+oX= %%#%# OO++ #@O.O#OO OO%.X+=-=,$$$,;**=**--;;X@O+OO X-o.O.o..=.O+ ##O*;:,,$$$$$$::,,:-==X+ % #",
"&@&% @@O     O +OO O%%## *;=+  +ooO ### %%% #O%OX++.+.O #@o=oXo+;$$$$$$$$,$$$$:;:;-oX.oX@+.O+o-;:;*=o=:$$$$$$$$$$$----;*--=.#%##",
"#%@@#o:,*.+XX.=-;;;*-o.X*,-.*--=**% %%##   O+  +..+O  +++#+oo. .X:$$$$$$$$$$$$$$$$$,;*oX;;=-;,$$$$$$$$$$$$$$:,$$$;=*.O+o=;=o.XO%",
"+.oo-$$$$::::,$$$$$$$$,$$$*=oX=XX:.@@@%  +o;:::,,,,:*.# O.=*=**=o=:$$$$$$$$$$$$$$$$$$$$,:,$$$$$$$$$$$$$$$$::*;,;--;*X++.X::,$,:*",
",::,$$$$$$$$$$$$$$$$$$$$$,XXo==*-,$*=XXX*:$$$$$$$$$$$:-XOo;;=o;-;:*o;,$$$$$,,,,$$$$$$$$$$$$$$$$$$$$$$$$,-XX=o===;,,=X*;-=:$$$$$$",
"$$$$$$,$$$$$$$$$$$$$$$$$$,-;-*;$$$$$$$$$$$$$$$$$$$$$$$$,:,,O*=+X*.=.+=**o*=XO X*:,$$$$$$$$$$$$,:;:$,,,-oXX.=;-o=*---;-;-o;$$$$$$",
"$$$$$-o-$$$$$$$,,$$$$$$$$;-:;X*:,:$$$$$$$$$$$$,,,,:$$$$$$$:@.oXo*;;;o.+.o,;=o.oXoo=-:,$$$$$,:=oX@ O=;-.Xo=oo=o=-;;---X+ooo,$$$$$",
"$$$$-Xoo-,,,:;**-;=.O%+.+.o-,,;-=*:$$$$$$,;;,,:-*;*:$$$$$$:o.oo.-:-*X@@ *o+XXOO O.XXX==oo=X=-=== OX*---=*== &@@ oX#= @%Ooo=**-:$",
".o*=%O >>><<<<>&><<<<<<<<<>& -$;**=*--;-+&>&#% +OXo=;-::::. O% o % &>@&>><>>>><<<&%o*o=o +XoX=XO*;-*..X @>>&%%@&>>%=O>&>&@O @@@ ",
"<<<<<<<<<<<<>>&@@&%%%&>>>>&>>>%XoX=X#% &&@&&&&><><>><<<<<<<>>>>+O<&%## #%%%%+O%&&@&@ o===Xo=X*;--*+@><<>>@O #@@%%  =O@&&&&><<<<<",
"&>>>>>>>>&@&@&@%%%#%#%@&&&&&&>>&++o=XO %%  #O%#%%O@##@&@@%#%%##&*+@##  %# %#  %%%&&%@=*.Oo;-o*;*o%<<>>&&@#%@@%%%#%+;.@#  %%%%&@@",
"@&%#%@@&&&&%%@%@#  +# ## #>&&>&&#*-;*X. O+O#%%#%   + %@@@@%%%%O  =+% #OO#O+#%@ O@&&@%+=+o:**-oX.X&>>@#OO%#%# %#@& @o:+# #O # #@#",
"##%O ###@@%%@#%%#%  OOO  #&>>&&>&*:;*;X#. O+.+O #OOO%#  O%+O%O.+  X=.. % +#+O@ .#@@&#O.X--*==XX..O&@@###OO  %%%@%%%@.;o  O+#%###",
"# # + @%@%%%%@@@## O# +#%#%&>>>>&+=*-**OOOO+OX.  ##%   O++++X+..+X#.X-*o+O##OO %  %&@&+;XO +XXo+ #%    O. %% #@%O O %o+ +OO ## %",
"##   %%#@%@&@#@%##%%@@@%%O+#&>>&& .=;::X ##@ O.   ###### #% O.O#O+X.O%@*.+..%.#%  #&&&@-*oXX..oOO O+O  +. # OO  @#OO+=X##%@#%%%#",
"#   #  ##@%##&@%%  ##@%O+OO @@&&&O+*-:$- ++XXOOOO#@@# OOO+  + #O+ @@%#+*.+O O% Xo+ %&&& -*.o*oOOXX+.OO .+#%%%%# # .. oo%#%#@% %@",
"% O OOO #   # # %O. %##%# %%#%#%&OXoo=,,+O++#O%  #@%%#+O +O OOO ###@##+XX  #.+O+O # @&&O-o*==-+O+.. OXX.+  %#   % ++OX*   #%@@%@",
"@@#+O+.O#%# %# @##%% %O%&@%%%  ##%.O O*$-OO+  O+    #O # OO+X.+O #%#@@&%X=*=O  O # % @&#==..Xo.OO.+O+ OO%#%#%###  #@&.;+# # @&@%",
"#%## # %%%@%#%&%@&&%@@% OOO#OO %#&X*oXo,,o+#.O  O #@% # #OOO#%#O##  #%@  O+X*O +O%%#O@%#O*,;;oOo*O+.X O##%@# ###+X+#%@X*@%%# ##@",
"@%@ +#%%%%%%%##@@@#@@%##% O %% +%%O==O=,$=  OX+ O.OO%##@#O%@%  % OO OO  +XO#=*%%## O %+X*oooX.+. .++ %O%  @%@ .++O # %&*+&%%@@%%",
"%####% %@&@%%@@@%%@%%%  %% +O+O@% O=*-*=$*O+O#@#O@%#@@@#O % O#OOOO#+OO+...##%+X+  OO%=o.-=+%+.+.OO O..+. ##%##OXX OO  %+*##%#%##",
"###%%%%@#%%@&&%%&@@%## ## #O OO  +.o=**;$; O+O+.O%@%# #%%# ###O.O% %###OOO++o.OX+O  *O%%-$,,,o.+.. OOOO # %### OO.OOO @**%%#%#%@",
"@&&%#%@#@#%%%%#@@%%## + %%##O O #O.o#%+.o=%%#@+.+O# #@ %@&@@@%@%%#   ##% #+.O*O%+#@-o&+X;-;--X+o+ +   %% #  @@## # OOO#+*.&@#@%@",
"#%#%@# %%@@#@@@@@%#%#%@#@%# +.OO %O=.OO%O+&%@O%@ %##%@ %   #%##  OOO OO %% O+X*O@#+-#O .-XX+oo....++#%O @%%% #% #%##% #@+-X+%%@%",
"%  %%O %%%%@%@%%@#### ## ##O+O%O #X-Xo X=+@@%O OO% @% #O #%+ #O#OOO %%# @@  + .*.%-= O o;.+#oX. X.+..    #%  O###  +%@#%&@.o- #%",
"# O+ %###%%%#%%%#%@%%%#OO # O+o+# -; &OX+O%@%% O#@#  #  %#%%%  O ## O # OO#%O.OO.**@%#%*-..OX.@+X...O#OO # O+++  #O%  #%O#@>**#O",
"O +#@#   OO#%%%# O%@@@# O  ++OO# +:;.*XOo.%  OO O O OO##++O##  O+O#O.+#% ##  +O @@&%##O;= =-:-++O+  #%@ +++O OO  %OO @%   #%o*&#",
"  % %##    @@@@%%%%@# O   #+XOOX*:$*X**o=*O  O.X....XXO+  +.OO#%    ## #%O++++.O++..X=:$X%O.;$-oX.+.O%%%O #..O  +O.X ##@%###.* #",
"o=oX====o==o.++O OXo==*-;;:::,,,$$$;*+=XO,;o=-=o;,,,:---*--;---;;;;;-**-;;:,,,::,::,$$$,=X..X$:*==-**-;*oX.O%  %#..+O++.XXX.=;-.",
"$$$$$$$$$$$$$,,,,,$$$$$$$$$$$$$$$$:o**XX-$$$$$$$$$$$$$$$$$$$$$$$$$$$$$$$$$$$$$$$$$$$$$$,..X+.$$$,,$$$$$$$,,:;----***;:,,,,$,$$,$",
"$$$$$$$$$$$$$$$$$$$$$$$$$$$$$$$$$$--;,$,;,$$$$$$$$$$$$$$$$$$$$$$$$$$$$$$$$$$$$$$$$$$$$,=++++#;$$$$$$$$$$$$$$$$$$$$$$$$$$$$$$$$$$",
"$$$$$$$$$$$$$$$$$$$$$$$$$$$$$$$$,:*=X*--o-$$$$$$$$$$$$$$$$$$$$$$$$$$$$$$$$,;;::,$$$,,;.Oooo+.X,$$$$$$$$$$$$$$$$$$$$$$$$$$$$$$$$$"
};