/* XPM */
static char *_3880f5641d44dd4dd5ff1b3929c4e8dEsrRH49dY5XW36fG[] = {
/* columns rows colors chars-per-pixel */
"128 128 13 1 ",
"  c #5C544A",
". c #585046",
"X c #534C42",
"o c #61594E",
"O c #4E463D",
"+ c #342F29",
"@ c #3C362F",
"# c #463E37",
"$ c #2C2822",
"% c #685F54",
"& c #746A5E",
"* c #817669",
"= c #8D8275",
/* pixels */
"+++$$$$$+$++++++++++$+$$$$$$$$$$$$$$$$$$+$$$$+$+$+++++@@+@++++@@########@@@@++++++$$$$$$+++++++++@++@+++++++++++++$+$$$$$$$$$$$$",
"++++@#XXXXXXXXXX.X....       ..XXOOO##@@@@++$++@O. oo%%o%o%oo%&&&*****&&&%%o .XOO#+$$$+@#OX   o%%%%%%%%o%%%%%%%%o%oo ..XOOOO###@",
"@++@X%*****=*****=============*******&&%o.#@+++#o&&**============******&&&&&&**&%.@$$$+O%&****======*****=====*****&&&&&&&&**&%.",
"#++#.&*======================*****&*&**&&%X@+++Oo%&&&***&*&&&&&&&&*&&%%%%%%%&*=*%.#$$$@ &====*==*&&&&%&&&&&&&&&&&&&&%%%o%%&***&%",
"O@+#X%**====**&&&&&&&&&&&&&&%&%%%o%%%%%%%% @+++@ %%oooooooo%oooo%ooo  o   oo%&=*&.#$$$# &===**&&%%%ooo ooo ooooooooooo ooo%%&&&%",
"#@+#X%%%%oooo      o o        o        o%% #+++@Xoo                      ooo%%**%.#$$$#.&=**&&&%&%%%oo   ..     oo o        oo%%",
"O++#X%%o                              o o% #++++Xoo             . .        ooo%&%.#$$$# &****&&&&%&ooo  .XXX.  oooo           oo",
"O++@.%ooo       ..........X........     o% #+$+@X%o     ...XXXXXXXXXX....    oo%oX#$$$# ****&&&&%&%ooo .XOOOX..  oo      ...   o",
"O++# %oo    ............X.X.XX.X.....   o% #++$+Xoo    ..XXXXXXXXXXXXXXX...   oo O@$$$@ &&&&&&&&%%ooo .XO#OOOXX..   .  ...X..  o",
"O++# %oo     ............XXXXXXXXXX...  o%.#+$+@Xooo o ..XXXOOXOXOOOOOXXX..    o O@$$$@ &&&&&&&&%%   .XO#####OXX... ... .X.X..  ",
"#++#o%o o   .......... ...XXXXXXX.X..   o%.#+$+@Xoo oo  ..XXXOOXXXXXOXOXXX..    .#@$$$# &%&&&&&&%o .XXO###O#O#OXXXX... ...XX..  ",
"#$+Oo%o     . ..X... . ...XXXXXXXX...   o%X#+$+@Xooo oo ...XXXXOOXOXXXOXXX...    #@$$$#.%%%%%&&%%o .XOO#O####O#OOOXXX....XXXX.  ",
"@++Oo%o o  . ..............XXXXXXXX.   oo%X#+$+@Xoo  oo  ...XOXXXXXXXXXXXXX.    .#@$$$#X%%o%%&%%%o XXOO####O##OOOOOOXXX.XXX.... ",
"@$@Oo% o    .......XX...X.XXXXXXXX.   ooo%X#+$$@Xo  o o  ....XXXOXXX.XXXXX...    O+$$+@X%%o%%%%%oo XXX####O##O###OOXOXXXXXXX..  ",
"++@Oo% o    . ...XXXXXXXXXXXXOXXX.. oooo%oX#+$$#Xoo    o  ...XXXXXXX.X.XX.X..  o O+$$$@Oo%oo%%ooo ..XXO####OO#OOO#OOXXX.X.....  ",
"+$@Oooo o   ....XXXXXOOXOXOXXXXXX. ooooo%oO#+$+@O o   o    ....XXXXXX.X.X....  oo#+$$$@Oo%oooooo    .. O##O#OOOOOOOOOXXXX....   ",
"+$@Oo%o o    ...XXOOOOOOOOOXOXXX. oooooo% O#+$+#O o         ....XX.X........   % #+$$$@#o%o o        oooOOOOOOOOOOOXXXX.....   o",
"+$@Ooooo o    .XXXO#O#O##OOOXX.. ooo%o%o%.O@+$+@O.%o         . ...X.X.......  o%O@+$$+@# %o     ooooo%%%oXO#OOXOOOOOXX.X..     o",
"+$@Oo% oo o   .XXOOO####OOOXX..  oo%ooooo.O@+$+#OXo%  o o o    ..........     %o#@+$$$@@.%o o ooooooo%%&o##OOOOX.OOXXX...    ooo",
"@$+# %o oooo ..XXOOOOO#OOOOX..  oo%o%%o%oX#+$$+#OXo%o o ooo o      .       o %%X@@+$$+@@Xoo  o oooooo%%%O@#OXO.%o ... .     oooo",
"+$+#Xo%oo o  .XXXOO#OOOOOOXX.  oo%o%oooo O@+$$+OOO.%oo o oo o o o o o o o o o%o##@++$+@@Ooo  ooooooo%ooXOXX...%%ooo       oo o  ",
"+$+@O.%&oo  ..XXXOOOOOOOOO... ooooooooooX#@+$$$#OOXo%%%ooo o ooooo ooo oooo o%.###@+$+@#O o    ooo%oooXX%%%%o%ooooooo o o   ....",
"$+++#X &%o ..XXXOXOXXOOXXX.X.    . .. .X#@@+$$$@#O#O.oo .XOOXOOXOXXXXXXXXXX..XOOO##@++##O.ooo  oooooo OX%%%oooo o     ..XXXOOXXO",
"$+$+@OXoo.....XXXXXXXXXOXOOOOOOOOO#OOO####@+$$$+#######@#@@@@@@@@@@@@@#@####OOOOOOOO@$@OOX oo ....    O@Ooo .XOOOXOOO#####@#@##@",
"$++++#OOOOOOOO#####O##@#@@@@@#@@#@########@$$$$+@##@@@++++@++@+++++@+@@@@@@@###OOOOO+$+@##OXX.XXXXOOOOO+$#XO#@@@@@@@++++++++@@@+",
"+++++@#@@@+@++$+@@@+@+@@@+@@@+++++@+@@@++++$$$+++@@@@++++++++++++++++++++@++++@++@#@+$$++@@@####@#@@@@@+$$+++$$$$$$$$$$$$+++++@+",
"o  .XXXXO##@$$$$++++++++++++++@@@@####@@@@+@@@@@@@@@++@+$$$$++@@#@@@@#@@@++++++++++@+++++++++++++$+$$$$$$$$$$$$$+++@@##OX. oo%%%",
"*=**====*&&%XO#$$+++@@@#@#OX. oo%&&&&&&&&&&&&%&%oo   ...#+++@O %%%&%&%%%%%%oo ..XXXOOOOOOOOO##@++$$$$$+@@##X. oo%%%&&&**=======*",
"***======**&%.X#$@#X.  o%&&***==*====***===========*=**&%O++Oo&&*&&****=**=**********&&&%%&%%.XO#@++#O %%%&&*=*******===========",
"&%&&&&**&&*&%.X#+@O%&&****=*==***&&&&&&&&&*****========&&.+@Oo&***&*****===************&&&&&%oXOO@+@O %&&&&&****&&&&&%&&&***=**&",
" o   o o%%%&%.XO++O.%&***&**&&%%o  ..XX..  o%%%&&******&&.+@X &&&&&&**&*&&&&&&&&&&&&**&&&&&&%o.O#@+@O.o&&%o%%%%%oo        ooooo ",
" . ..... oo%% XO++OOo&%%%ooo ...XXXXXXXXX.. o%%%&%%%%oo%%O+@O.%o o%%%%%%o%ooo     .  o%%%%%%%o O#@$@OX %o        . ..... .  .   ",
" ........  o%oXO$+OX%%o% .XXXXOOOOOOOOOOXX. o%%&%%%%%ooo.O@@O.%  ooo%%%oooooooo ...XXXX.     ooX#@$@#OX    ........X.X.......   ",
" .XXXXXXX.  %%XO$+OX%%oo.XXXOOOOOOOOOOOOOX.. %%%&%&%%ooo.O@@O.o  o%oo%o%oooooooo .XXXXXXX.... %.#@$+#OX   .....XXXOXOOOOXXXX.   ",
"..XOXXX.X.. o%.O++OX%%o XOOXXOXOXOXOOOOOOOXX. o%%%%%%%oo.#@@O.o oooooo%ooo%o%o%o .XXXXOXX.... o O@$+#O.  ....XXOOOOOOOXOXOXX.. .",
".XXOOOXXXXX o% O++OX%o .XOOXXXXXXXOOXOOOOOOX.. oo%o%%ooo.#@@O.o ooooooooooo%%%%o  ..XXXOXX....ooO@$+#O.  ....XXXXOOXOXOOOXXX....",
".XXOOOXXX... % O+$#X% .XOOXX...XXXXXOOOOOOOOX..  ooooo o.#@@O.     o      o ooooo ..XXXXXX.. .ooO+$+@O.  ....XXOOXOOXOXXOXXX....",
".XXXXOOXXXX. %oO+$@Xo ..XOXX....XXXXXXOOOOOXOX..    o  o.#@@OX ....   .X....  oo  ...XXOXX.. . %O+$$@#. ....XXXXXOOXOXXOXOXXX...",
".XXXXOXXXX.. %oO@$@Ooo  .XXX. . .XXXXXXXOOOOOX...      oX##@#X ..XXX...XXXX...    ...XXXXXX... oO+$$@#  ...X.XXXOOXOXOXOXOXX....",
"..XXXXXXX....%oO@$+#.%oo .XX.... .XXXXXXXOOOOX. .      oX##@@X.XXXOOXXXOOOOXX.. .....XXXXXXX.. oO+$$+#  ....XXXOXOOOOXOXOXXX....",
"..XX..XX...  %oO@$+@Xo%oo XX...  ...XXXXXXXXXX ooo     oO##@@O..XXOOOOOO#OOOOXXX..XXXXXOOXX....oO+$$+# o ..XXXXXXOXOXOXOXXXX...X",
". ........   %oO@$@@O.oooo.XX... ....XXOXXXXXX.ooooo   oO##@@O.XXXOOOO#OOO#OOOOXXXXXXXXOXXXX... #+$$@#.o ....XXXOXOOOXOXXX......",
"    . . .    % O@$@@@O.ooo ......  ...X.XXXXXXX.o o   ..###@@#.X.XXOOOOOOOOOOOXOXXXXXXOXXXX..X  @+$$@#.o  ..X.XXXXXXXXX... ...  ",
" o      o o o% O@$@@@#Xooo     .    ................  .O##O@@#X.XXXXOOOOOOXXXXXXXXXXXXXXXX.X..oX@+$+@#Xoo  ....X.XXXX..  o      ",
"    ........o%.X@$+@##O             ............. .   .O#OO@@@O.XXOXXXOXXXX....... .  .  .. .  O@@+$@#Ooo   .......      ..XX.  ",
"OOOO##@#####X.OO#$+#@##OXX.    .      ............ .. X##O#+@@#.XXX.....      ooo   ....X.XXXXX#@+$+@@# o....X.......XXOOO#####O",
"@@@@++++@+@@@#@#@$+########OXXXX....XXXXXXXXXXXXOXOXXXO##O#+@@@OX..  ...XXX.....XXOOOOO#O#O#OOOO@+$++@#OXOOOOOO#O####@@@@@@@@@@@",
"+++++++++@@@@@@++$$@#@@@@@@@@@@@@#########################@+@@##OOO#O##############@#@@@@#@###@#++$+++@@@@@@@@@@@@@+@@+@+++++$++",
"$$$$$$$$$$$$$$$$$$$$+@@++++++++++@+@++++++++++++++++@+@@@#++@#@@@@@@@@@@@+@+@@@@@++++++$+$++++++$$$+++$$++++++$++++++$+$$$$$$$$$",
"+++$$$$$$$$$$$$$$$$$$$+$$$$+$$+$$$$$$$$$$$$$$$$$$$$+$+++++$$@##@@@+@+++++++$$$$$$$$$$$$$$$$+++@@+$#O#@@++$$$$$$$$$$$+++++@@@++++",
"XO@+$$+++@@###@+++$$$$+@##OOOOO########@@$$$$$$$$$$$$$$+$+$$+##@@@+++++$$$$$$$+@###@+$$$$+#o&&&&@#&*&%ooo .XXOOOOXX.. oo%%%%%%oo",
"&o#++@#OX.%&&&***&& #+%**=========***&o.X@+++++++@+@+++++$$$$+$$$$$$$$$$$$#X %&&**& O@$$$@o===**#o===*=*=*****&*******=*====***&",
"&%#++#Oo%&*&*&&&&&&& @ ************&&% XX#+@#OOXo%%ooooo .#@+@#OX.X#@@@#.&*******&*%X@$$+#o**&&&.&*****==*=================*=***",
"&%#++#O%*&&&&%%%%%%%oO@%&&*&&&&&&&%%oo OO#+@O.%&*===*******&%&&&&&*&&&o%*****&&&&%&&.#$$@#o&%ooo %%o%&&&&&&********&****&*&&%&%&",
"%o#++OO &&&&&%ooooo%o #O%&&&&&&&%%%%oooO##+@O &===***&*&*&&&&&&%&&&&&*&&&&&&%%%oooo% #$$@Oo%o    %   ooooooooooooooooo ooooooooo",
"o #++OO &&&%%oooooooo .#X%%&&&%%%&%%%o%O##+@O.**&&&%&%%%%&%%%%oo%%%%%%%%o%%o ..    % O$$@Ooo   .oo o oooooo  ...    o o o oooooo",
"  #++OO &%%%%o oooooooooOXo%%ooo%%%%oooO##+@Oo&%%%ooooo%oo%oo  oooooooo o .XX.     oo#$$#Xoo   X%   oooooo    .. .     o ooooooo",
" o#++#O %%%%%%  oooooooooXX.   o oo%oo XO#+#Oo&oo oooo%o%%oo      o  o  .XXX.   o  oo#$+#Xoo  O %  ooooooo   .   .          oooo",
"  #++#O %%%%%oooooooo   o% OX.    ooo  .O#+#Oo%o ooo%o%%%%%oo        ..XOOOX.  o o oo#$+#Xo  .X%o ooo%ooo  .               o ooo",
"oo#++@O %%%%%%ooo     ... o OX..        X@+#Oo% ooo%o%%%%%o      ...XXOOOOOX.   o  oo#$$#X ..o%o ooooooo .      .   o   o   o  o",
"  #$+@O.%%o%oooo o   .....ooo.XX.     o O@$@Oo%oooooo%%%oo     ...XXOOOOOOOX.  o    o#$$#O.X &%  ooooooo    o     oo o o     oo ",
"o O$+@O.%oooo%ooo   ...XXXX.  .X..      O@$@O%%oo   oooo  ... ...XOOOOOOOOXX..  .. oo#$$@O#O&%   ooooooo ooo    ooo  oo       o ",
"  O++@O.%o oo%oo  ...XXXXXXXX    ..   o.O@$@O%o     oo   . . ..XOOOOOOXOXXX......  ooO$$@@@%% .  oo%ooooo o   ooo  ooo   .  o oo",
"  #++@#X%o  o%%o  ..XXXXXXXXX...  o  ooXO+$@O%o        .. ...XOOOOOOOXOXXXXXXX..   o O+$$+ %o . o%o%%oooooo ooo oooo o  ...   oo",
"  O++@#X%o   o%% ...XXXXXXXX....   o o O#+$#Ooo  .. ... ....XOOOOOXXXOXOXXXXX..    % O+$$#%% .. oo%%o%oooo ooooooo oo  .XX..  oo",
"  #++##Xooo   %%o ...XXXXXXX...  o   o.#@$$#Oo  . ..... ..XXOOXOXOOXOOOXXXXXX.  o  % O@$+O%% .. ooo%%oooooooooooooo   .XXX.. ooo",
"  O++#OXo% oooo%%o ..XXXXXOX... oo   oO#@++#Oo    .......XXOXOXOXOXOOOXXXXXX   o  o% O@$@Oo% . oo%%%o%o%oo%oooooooo  .XXXXX.  oo",
" .#+@#OXo%oooooo%%o...XXXXXXX..  o o%o##@+@#Xo   ..XX...XXOXXOOOOOOOOOXXXX..  o   o%.O@+## &  .ooo%o%oo%o%ooo%ooo  .XXXOOXX.  oo",
" .#+@O.. %oo%oooo%o  .......XXX. oo%%.##@+@#X%   .XXXXXXXOXOXOOOOO#OOXXX...  o o  o%XO#+##X%o   o%%o%%%%o%o%oooo  .XOOOXXX.  ooo",
".X#+@Xooo%ooo%oooo%oo           oo%%%XOO@+@#X%o .XXXXXXXXXXXOXXOO#OOOOXX..   o    ooXO#+#@#o%   o%%%%%%%%%oo%o  .XXOXOOOX..  ooo",
".XO+@Xo%o%%%o%%oo%o%oooooo%oooo%o%%%oOOO@$@#X% ..XXXXXXXXXXXXXOOO#OOOXX...       oo OO@$@@@O%o  ooo%%%%%o%o%oo  .XOXOXOXX..  ooo",
".OO@+Oo%%ooo .  ooo%%%%%%%%%%o%%%%%%  .X#$@#X% ...XX.XXXX.XXXXXXOXXX....        o%%.XX@+@@@#.%oooooooo%o%%oooo  .XXXXO##OX.  o o",
"XX#@@#Xoo.OO#####OX..      ..X.  ooo o .#$@O.o  ... .. ....   .....              oo.XX@+####O o  .. . .  ..XXXOOOOOO#@+@OXX. oo ",
"OX#@+@#OXO#@@@@@@@@#@#@###@@@@@@##OOX..X@$@.oo ...         ....XXXXXXXXXXXOOO#OOXX  .X@+#X.XOOOOOO################@@++$$@##OOOXX",
"OO@@@@+@@@++++++++@+@+@+++++++@@@@##OOX#$$+.ooXOOOXXX.X.XXOO###@@@@@@@@@@@+@+@@#OO..O#++@O. X##@@@@@@@@@@@@@@@@+@+@++$$$$@@#####",
"@@++@@+++$$$$$$$+$$$$$++++++++++@+@@@@@+$$$@OO##@@@@@@@#@@@@@+++++++@+$$++@+++@@@@@++++@@@##@@@+@+++++$$$$$$$$$$$$$$$$$$$++@+@@@",
"+@@@@####@@++$+$$$$$$$$$$$$$$$+$++$+$+$$$$$++$+++++++++$+$+$$$$$$$$$$$$$$$$$$+++$$++@####@@@++++$$+$$$$$$++++@@@+$$$$$$+@@@+++++",
" ooo%%&&&&o.XO#@@++++$+++@@@#@@@++$+++@###@@+++$$$$$$$$$$$$$$$$++@@@@@@+@@@@@++++@O.o%%%%o  .XOOOOOOOOXX. oo%%%%o#$$$+#O. oooooo",
"*&**********&&%% O#@@@##Xo&&&& #@++++# &&%%o #@@OOO##@@@@###OX. ooo%%%%%%%oo.#++@Xo%&&&****====*=***********=***&o@$+@o****=****",
"***********&&&&&&&oXOO.%******&.#@++#.&*****o@X&****&&***********&*&&&&&&%&%.#++O.o&&&&*=====================**&%o#+$#&=**=====*",
"&&&&&**&&&%%%%%%%&&%%%%&*&&*&*%oO@$+#.&&***%# *=*==*======***********=**&&&%X@++O.o%&&&*****=====*&&========**&&% O+$#&****=****",
"oo%%%%%%%%oooooooo%%%%%%&%&&&%% X#$+#X o%%&OO*******&&***&*&&&&&&&&&&%%%oo&%O+$+XX ooo%oooooooo&&&%%&&&**&&&&&%%%.X@+#o%&&%%%%oo",
"ooo%%%%o%ooooooooo o  oo%%%&&&% X#$$#X... .@ %%%%%%oooo  oo  ....XXOXX..X.  #+$@XX    oo  ..XXX. o%oo   ooooo o%%.O@+#.%&%&%%o  ",
"oooooooooooooooo o     o%%%%&&%oX#$$#. .. O#% ..   ....XXX....XXXXXXOXXX....#+$@XX  ooooo .XXXXXXX.....    o ooo% O@+#.&&&&&%o  ",
"ooooo%ooooooo   o     . oo%%&%%oO+$$#. .. #.%      ...XXXX....XXXOXOXOXXX.. #+$@XX ooooo  .XOOOOOOXX.....   o oo& O@+@.&&&&&%o  ",
"oo  oo%oooo o    . .....   %%&%oO$$$#. . .@oo       .XOXXXX......XXXOOOXX.. O+$@XX ooooo  XXOOOOOOOXX..X..   ooo% O@$@.&&&&%%   ",
"o  . o%%o%oo   ...XXXXX... o%%%oO$$$@X   O@    ooo   .XOXX....   .XOOOOOXX.oO+$@XX oooo  .XOOO#OOOOOOXXXXX..  oo% X#+@X&&&&%o   ",
"  ... oooooo    ...XXXXX.. ooo%oO+$$@X  #@@X.    oo  .XOOXX... .   XOOOOXX.oO+$@XXoooo  .XOO##O#OOOOOOOXXX..  oo% X#+@X%&%%% .  ",
" ..XX. oo  o  . ...XXXXX... ooooX+$$+OX@#.OO..   oo  ..OOOXX...    .XOOOXX.oO+$@XXoo%o ..OO#O#OO#O#OOOXOXXX..  o% X#$@X%&%% ..  ",
" ..XX..    o    ..XXXXXXX..   ooX+$$+@@X%o OX...  oo ..XOOOXX.      XXOOXX. #+$+OXo%oo..XOOOOO#O#OOOOOOOXXX..  o% X#$@X%%o .X.  ",
"...XXXX.....    ..XXXXX....    oX@$$$@Xo . XO.....   ..XXOOXXX..    ..XXXX. #+$+#Oo%oo XXXOOOOOO#OOOOOOXXX...  o%oX#$@X%o .XX.  ",
". .XXXXXXX....oo .XXXXXX..    ooX@$$$O .... OX..X..  ...XXXOOXX..    .XXOX..#$$$## %%o .XXXOXOOOOOOOOOXXX.X.. oo%oX#+@X%o..XX.. ",
"  ...........  oo .XX.X....   o.O@$$+#...... OX.........XXXXXXXX.     .XXX.X@$$$@#.%%oo..XXXXXXOOOXXXXXXX....  o%oX#+@X%%...... ",
".    ......    o%% ......    o O#@$$+#...... .#X.XX.....XXXXXXXX..    .XXX.O@$$$@OX%%oo ....X....XXXX.X....    o%oX#+@O % .... .",
"         o     o%%o  ...    ooX##@$$+#X...... O#OXXXXXXX.XXXXXXX..    .X.XX#@$$$@OXo%o   ..........X......    oo%oX#+@O.%o .... ",
"  o o  o oooo   o%ooo      oo #@@@+$+@#OXX...XO@#OOOOOOOXX.......... ...XXO#+$$$@OO %o     ..      .    .      oo.XO++O %%      ",
" o ooooooooooooo ooooo    oo O@@#@+$@@###O#O####@#O###O#OOOOXXXX.......XXX#@+$$$@#OXoo         . ...XXXX...    o XXO++X %% o    ",
"     .....X..... .         .O@@@@@++@@@@###@@@+++@@@#@#@#@####OOOOXXX.XXXO@@+$$$+###OXX..X...XXXXXOOOOOOOOXXXXX.XOOO@+O.o .XX...",
"OOXXOO#######OOO#OOOOOOO###@@++++$$$+@+@+@++++++$++++++++++@@@@####OOO#O##@@++$$+@####OOOO################OOOOO#OOOO@$#OOO######",
"@####@#@@@@@@@@@@@+++@+@@@@@++++$$$$+@++++++++$$$$$$+$+$+++++@@@@@###@#@@@#@++$+++@@@####@#@@@@@@@@@@@@@@@@######OO#+$+##@@@@@@@",
"@@@@@@@++++++$$$$$$$$$$$$$++++++$$$$++@@+++$$+$$$$$$$$$$$$++++++++@@@@@@@@#@+$$+++++@++++@++@++@@@@@@++$$++++@@@@@@+$$$$++$$+++@",
"$+++$$$$$$$$$$$$$$$$$$++@@@###OOOXX.    ..XXOOO######@@+++++++$++@++++++++@+$$$++$$$$$+$$$$$$$++++++++++@+@++++++++$$++$$$$$$$$$",
"++$$$$++$$$$$$+#XXX. o%%%&&&******=*====*=****&*&&&*&&&o.O@++++Oo%%o X#@@@@@@##OOO#@@++@@##@+$$+++@@O. o%%%%oo .OO##OX.. .XXOO#@",
"& XO##@@@+++@#X&&****================================**&%oO+$++O%*====*&%%%%&&&&&%%o o%&&&&%X@+++@#X%&&**********&&&&**========*",
"==***&%o.#++@#o&********=========*=*=================*&%o O@+$+O%*=======***=*=**********==*o#+++@#.&**&***===*=*=****==========",
"=====***&%#+@#%&*&&&&&&%%%&%%%%%%%&&&&&******&&&&&&&&&&% XO@$$+Oo%&*========*=**&&&&&******=*O+$+@#.%&%&%&&&&&&*********========",
"*===**&*&%O@@@.%&%oo . .   ooooooooo%%&&&&&&&%%oooo%%%%%.O#@$$+O oooo%&&%&&*&&%o%o%o%oooo%**&.+$+@#.%%%%%%%o%%%%%&&&&%%%&&******",
"o%&&&&&&% O@+@O.o   ... .  ooooooooooo%%%%&&%%o    ooo%%XO#@$$@Xooo  ....X.. .XXXXXX.... .%%oX+$+@#o%%%%%ooooooo%oo%o%o%%%%%oooo",
"     ooooXO@+@OX   . ...   ooooo o    oo%%%%%oo . .. o%oO##+$$# %oo .XXXXXXXXXXOOOOXOXX... o X@$$@O%%%%%%ooooooooooooooooo      ",
"  ..  o  XO@+@OXo         ooooooo    . ooooooo  ..... % O#@+$$#oo  .XOOOOOOOXOOO#OOOOOX....  X@$$@O%%%%%%oooooooooo  ooo        ",
" ....  o XO@+@OXo  .       oooooo  ...   oooo  ...XX. %.O#@$$+Ooo..XOOOO#O#OOO#O###OOOX.... o.#$$@X%%%%oooo  o     o o o  ..... ",
" . ..  o XO@+@OXo ..      .  oo oo    oooo o  ....XXX o O#+$$+Oo XXO#O#OOOOOOOO###O#OOXX. . oX#$$@X%%oooo   o     .      ..XXX. ",
". .... o XO@+@OXo....     ..  oo oo   ooooooo ....XXX.o O#+$$@Xo.XOOOOOOOOOOOXOOO#OOOOXX. . oX#$$@.%o .         ...X.   ...XX...",
"..XX.. o XO@+@OXo XX.     ..   oo ooo oooooooo  ..XXX.ooO@+$$@Xo..XOOOOOOOOXXXXXOO#OOOXX.   oX#+$@.%o .       ..XXXXX.....XXX...",
".XX... o XO@$@OXo ..X.    ..   ooo o ooooo%%oo   ..XX.ooO#+$$#.o..XXOOOXOXXXXXXXXOXOOXX..   oX#+$#.%o .....    .XOXOOXXX.XX.. . ",
".....  o XO@$+#X o....    ...    o   ooooooo%oo   .... %X#+$$#.o...XXXXXXXX......XXXXXX.    oX#++#.%o ..........XOOOOOOOXX.. . .",
"  ..   o XO@$+#O o ...     ... .  o       oooooo   ... %.#@$+#Xo...XXXXXX.X..  ........     oO#+$#.%o  .........XXOOOXOXX...    ",
"  ..  oo XO@$+#O.o .... ....X..         .       o   .  o.O@+$#O  ...XXXX.X..........X. oo    O#++#.%o   ..... ..XXXXXX....      ",
"....  o  X#@$+@#Xo  .. .....XX..    .......     o      o O@+$@O. ....XX....... ...... oooo  .O@++#X%%    ..... ...XX... .    o  ",
"...  o o.O#+$+@@O  ........X..... .   .......  o o    o .O@+$@#X  .........  ... . .  ooo   XO@+$#Xo%oo   .....  .....     ooo  ",
"..   oooX#@+$++@#...X.X..........   . .... .     o o    .O@+$+#O.o. ......      ..    ooo  .XO@++#X %o o    ...          ooo o  ",
".   ooo O#@@++++@O.XXXX....... ...      ...    o      o X#@+$+@OX  .. .   .                .O#@$+#O.oooooo          o   oooooo  ",
"..   . .#@@@+++@@#XXOOXX.......         .    o   o      O#@+$+@#OX..XXXXXX...XXXXXXX...XXXXO#@+$$@OX.  oo oo      oo     o   o  ",
"..XX...O#@@#+++@@#OOOOOXX......XX.....XXXXX... . . ....XO#@++++#OOOOOOOXOXOOOOOOOOOOOOOOOO#@@@+$$+###OX............XO##OX.......",
"OO######@@@#+++@@##OOOO#OOOOOOOOOO#############O#OOOOOOO##@++++@#OOOO#O#####@#@@@@@@@@@@@@@+++$$$$+@@@##OOXXXXOO####@@@@#OXXXXOO",
"@#@#@@@@@@#@++++@@######O#####@#@##@#@@@@@+@@@@@@@@@@@#@#@@@++@@#O####@#@@@@@+@+@+++++++++++++$$$$$++++@@@####@@++++++++++######",
"@@#@@@@@@@@@+++++@@#@@@#@#@@@@+++++++++$+$+$+$+$+$+$+++++$$$+++@####@@@@@@@@@@+++++$$$$$$$$$+$$$$$$+++++++++++++$+$+$$$+$+++@@@@",
"++++@+@+@++++$+$++++++++++@+++$$$$$$$$$$$$$$$$$$$$$$$$$$$$$$$$++++++++++@+++++++++$$$$$$$$$$$$$$++$$$$$$$$$$$$$$$$$$$$$$$$$$$$$$"
};