/* XPM */
static char *c1f0f12752c2481ade8736b0273ecb82yeRvt4bYpHUSkCcF[] = {
/* columns rows colors chars-per-pixel */
"128 128 13 1 ",
"  c #234E5E",
". c #234B5A",
"X c #284D5B",
"o c #295160",
"O c #0D2834",
"+ c #021721",
"@ c #051F2A",
"# c #13313E",
"$ c #2D5766",
"% c #1A3B49",
"& c #336070",
"* c #204453",
"= c #396A7B",
/* pixels */
"@+@OOOOO@OO@@@@@@@@OOOO##OOOOO####OO#######OOO@@@@@@@@@+++++++++@@++++++++++++++++++++++++++++++@@@@@@+++++++@@@@@@+++++@OOOOO@@",
"@#*****%*********.XoXXooooX..  oo%.o       ...****%%*%%#@@@@OOO####%#%#%#%%%%%%%***%%%%%#####%%%*****%%%%%%%%******%%%%**..*%%O@",
"#o$o$o$$$&&&&&&&&&=&&&&&&&&=&&&&.&=&=&&&&&&&&&&&&&&&$&$o#@@#***oo$$$&&&&&&&&&&&&&&&&&&$&&&&&&&&&&&&&&&&&&&&&=&&&&&&&&&&&$&$o..%@",
" &$$$&$oo$oo$&$$&$&&===========o====&==&&&$&$$o$$$&&=o.*#@@*..$&$$$$$$o$&&&==============================&============&=&&&X**#O",
"&&&&&&XX....**..*X.XXXoo$$&==&&*$o  .   ....       .&o%%#@@*o$&o....*....   $$&&&&&&=&&=====&===&=&&&&&&&&&&&&&&&&&&$&$$$$$*%%#O",
"$&$&&XXXXXXXXX*XXXXX*.......*..%....... .        o  o$%%#@@*$&$.........      .  .. .   oooo$&$$$o   XXXXXXXXXXXXXXXXXXXXXXX%%OO",
"$&&&XXX.XXX*XXXX*X.X..........X% ...  ..  . .  o  o  $*%#O@.$&o.......                       . . .....X.XXXXXXXXXXXXXXXXXXoo*%OO",
"$&&&X XXXXXX.X*XXXX........... %.    .           o   $X%#OO &&o.....                        X      ...XXXXXXXXXXXXXXXXXXXoX$*%OO",
"$=&=o XXXXX*XXXX*X*X.X.X.X....o%.  .                 $$%#OO.&&o......                 X X X    X    XXXXXXXXXXXXXXXXXXoXooo$*#OO",
"o=&=oXXXXXXX.X*X.X.....X.X. . o%.            .       $o%#O@.&&&.....                 X     X     . .XXXXXXXXXXXXXXXXXXoooooX%#OO",
"o===oXXXX.XXX.X.*X..X.X*X..XX.o%.                    &.%#O@*&&&.....         $ $ oo o X X Xo       .XXXXXXXXXXXXXXXXoo    $%##OO",
" ===$XXXXX..X.*X....X*XXX.XXXXo**o  oo        . .    $%%#@O*&&&.....       $    o o  o           . X.XXXXXXXXXXXXXXo     oX$##OO",
".===oXXXX..X.X..*....X..XXX X  X%o oo o o          .$.%%O@O*&&$.... .     $   $  oooooo oX        X.XXXXXXXXXXXXXXoo    $..o##OO",
"*===$XX.X.X..X..........X.XXX o.%ooooo o       .    $*%%#@O*$=$.....            o o o oo        . .XXXXXXXXXXXXXXXo    $o*$*OOOO",
"%===$XXXXXX.X.........XXXX.X   $%$ooo oo o          $o%%#@@*$=$..... .       $ $ oooo o o         X.XXXoXoXXXXXXXXo   $*@%&*O#OO",
"%&&&&XXXX..X.X.........X.XX  o =#*o$ooo o            $*%#@@%$=$.......        o  o    o           . oXoXoXXXXXXXXX . o*%*%%#@OOO",
"#&&=$.XXX...X........XX.XXX o $$&X%.$o  oo          .$.%#O@%$=$........       o o o o           . XXXoXoXoXoXXXXX. o.%*oo o.OO@O",
"%===$.XXXX.XX.X..X.XX..XXX   o$$&$$.%o$o             oo%%O@#$=$........     o  o   o o           XXXXoXXoXoXXXooo$$*%.o    o%%OO",
"*===X.XXX.XXX.....XXXX.XX   oo$o oo$X%%oo            X$%%O@#$&$.........         o              .XXXXXoXoXXX$X****%*oX     .#%OO",
" =&&XXXX..X......XXXXX  X   oXo oooXoo##o           X $*%#@#o&&.........X                       XXXXXoXooXoo%%*.X.XoXX    o.##OO",
"$=&&X....XXXXX..XXXXX     oo*oooooooXX$%*o        X  .$X%#@#o$&.........XXXXX  . .          . . XXXXXooXX$X%*ooXXXXXXX    oX##OO",
"&&&$.X..X.X.X..XX XX    oo o$oooXoooXoo$%oX     XXXX  o.%#@#o$& ......XXXXX X .  . . . .  .  . XXXXoXXo$$X%XoXXoXXXXX      X#OOO",
"&&&$....XX....XXXXX    oo  XooXoooXXXXX$%.     XX.XXXX$*%#@%$$= .. ...XXXXXXX... .  . . ..  . XXoXXXooXX*%ooXoXXoXXXX X    .O#OO",
"$&$ .....X.XXXXXoX    o o o$$XoXXoXooXXXX*o  XXXXXXX X&*%O@*$$&. ...X.XXXXXXX.. . .. .... .. X XXXXoX****oooooXoXoXo       o#OOO",
"$$$ . X....X.XXXo    ooo oo$oXXXoXXXXXXXX% XXXXXXXXoXoo%%@O*$&&. ..XXXX.XXXXX... . ... . . .XXXX XoX%Xoo$ooooXoooooo o     o%#OO",
" $$ X  X..XXXXooo    o ooooo$XoXXXoXXXXXo%.XXXXXoXXXXoX%#@OXo&&. XXXXXXXXXXX...............X.X XXX$*XoooXoooooooooooo o   .$%#OO",
"*&&o.XXXXX.XXXXX    o  o ooooXXXXXXXXXXXX*%oXXXXXXXXX$*%#@Ooo&&*XXXXXXX.XXXX.............. XXXXXXo**oXoooooooo$oooo o o   $X%#OO",
"$&$$ oooXXXooXX  oooooooooo$X$oooooooooXoX#oXXXXoooXo$*%#@O $=$.XXXXXXXX...........**.*.*....XXXo$%XXoXooooooXXoooo$     o*O##OO",
"$&$oX*%%%%%%**...**%%%*XX**%#**%%%%%%%%%%O#%%%#%%%**X.%%%@@*o&X**%%%%%%%****%#####%********%%%%%%#%..XXXX**%#OOO##%*....%OOOOO@O",
".$$*%#####O#O###########%###O###########O@#########%#%%%%O@% *##OOOOO@OOOO##OOOOOOO#%#####OOO@@@@OOO######O@OOOOOOOO###OO@OOOO@O",
"%$X%###OO#OOOOOOOOO#O#######OO##O#O#####@O##O#O#####%%%%#@@#.%#OOOOOOOOOOOOOOOOOOOOOO####@@@@O@@OO######%#OOOO@OOOOO###OOO@OO@@@",
"O%%#OO@O@@@@@@O@@O@@@@OO#O@+@+@OOOOOOOO@@O@OOOOO@@@OOOOO@@@@OOOOOO@@@@@O@OOO@@+@@@OOOOOOOOO@@++@OOOOOOOOOOO@@@@O@@@@O@@@@@@@@@@O",
"O@OOOOO@OO@@@@@@@@@@@@+@+@@@@@@@@@+@+@@@@OO@@@@@@@O@OOO@O@@@@@@@@@OO@OOOO@@@@@O@@O@O@@O@@@@@++@OO@@@+@@@@@@@OOO@@@@@@@@@@@@@@@@@",
".o  . oX. oXoX..*..**%#######OOOO@@@@@@O%oo*%%%%*..Xo$$.*%##%%***.  *%%%%%%**...***%%%%OO@@@@@%*. *%%#@#**%%****%** $$$o .*****.",
"====&=&&&&&&&&&&&&&&&&&&$$oX..Xo.*#O@O%o&=====&=======&&&&$$&&========&&&&&=&&&&&=&&&=$ *#@@@#o&======$X========================",
"=&=&=&=&=&&&&&=&=&====&=&========&X#@%$&==&&==============&=========&&&=&&==&===&&&&&====$#@@%&========$&=======================",
"&&&&&&&&&&&&&&&$&&&&&&=&=&&&=&&&&.*#@*&&=&.Xo$&&&&$$$$ooooo$&&&&&$$XXoooo $$&&&$&$$$XX..$& O@%&=========&======&&&&&&&=&&&&&&&&&",
"oo$$$$$$$oo . ....X.Xoo$oo$$o$ooX%##@%$&&.XXoXXXoXXXXXXXXXXXXXXX...XX .....o..XX*X*.......*OO.$&$. o$$$=&&=&&$$  .XXooXoXoXXXXXo",
"o$oo$$o$oooo     ....XXXXXXXooXoo%##@%$&XXXooXoXXoooXXXXXXXXXXXXXXXXX  XXX.XX*..X.X*.....%#O@.$&o       $X$      XoXXXXXXoXXoooo",
"oo$$$ooo$$oo       XXoXoXoXoXoooX%##@#$$oXXoXXoXoXXoXXXXXXXXX X XXXX XXXXX.XXXX.X*....*. %#@@.$&$.      o*      XXXXXoXoXXoXoooo",
"$$$o$$$o$$ o o    XXXXXXoXooooooo%##@%$$oXXXXXX$XXoXXXXXXXXXX XXXXX XXXXXXX*....*X..*....%#@OX$&o.    . o*o    XXXXXoXXXXooo$o$$",
"$$o$$o$o$$oo     XXXXXooXooXooXoX%##@*$$oXXXX$XXoXXXXXoXoXoX  X XXXXXXXXXXX*XX..X........##@O.$& . ..  .$#%   XXXXXXXXXoXoooo$$$",
"$$$$o$o$$o$     XXXoXoXoooXoooo o%##@*$$oXXXXXX$XXXXXXXoXo   XXX XXXXXXXXXX*.X.X........*##@Oo$&  .. . .o%..  XXXoXXXXXXoooo$$$$",
"$oo$o$ooooo o  XXoXXoXoXooooooo o%#O@*$$XXXXX$XXX$XXoXXXo    XX XXoXXXXXXXXX.XX.........*#O@#$&$. ..  .oX*o XXXXXXXXXXXXXoo$$o$o",
"oo$o$Xooooo$  oXXXooXooooo$oooo o%#O@%o$XXX$XXXXXXX$XXoo o  XX XXXXXXXXXXXXXXX.....*..* %#O+#$&&. .  . o% . XXXXXXXXXXXXXo$o$$oo",
"ooX$o$oooo$   XoXoXoXooo$oo$ooo o%#O@%o$oXXXXX$X$XXXXoo    Xo XXXXXXXXXXXXXXX. ........ %#@+O$&=....X.o%.  .oo.XXXXXXXXXXoo$$ooo",
"$o$XoXXoXXo oXXXoooXoooooo$ooooo$%O#@%o$$X$X$XXXXX$XXo o ooo XXXXXXXXXXXXXXXXX....*.*...%#@+@$&=&.... X% .  XoXXXXXXXXXXoooo$$oo",
"oo$ooooXXooo o .ooXoXXooo$ooooo o%O#@#$&$XoXXX$X$XXXoo ooooXoXoXoXXXXXXXXXXX XXX......*.%#O@@*&==&... X* .  XXXXXXXXXXXXXooooo$o",
"oooXoXXXoooo oXXoXoXXXooo$ooo$ $ %O#@#$&$XoXoXXXXX$oo ooooooXoXXXXXXXXXXXX  XXX..*X*....*#O@@*====....oo.. X XXXXXXXXXX..Xoooooo",
"ooX oXXoXo  oooXoXXXXXXoooooo $o$%OO+#$&&XoXXX$XooXoooooooooooXoXXXXXXXXX XX.XX.XX.X*.*.*#O@@*====........  XXXXXXXXXX...   XXXo",
"XX oXXo    oo XoXXoXXooooooo $ $o%OO+%$&$XoX$XXX$oooooooo$oooooXXXXXXXXXX.XXXXX.*X*..*..*#O@@.====*... ... X .XXXXXX*X*X. .. . o",
".  X         XoXXXXXXXXXooo $ $oo%OO@X&&&XXXXXXooooo ooo$oX$X$XoXoXXXXXX XXXXX.XX*X*.....%O@@o&==X....X...  .....X*XX.......... ",
"         ..  ooXXXXXXoooXooo oo$X##O+%o&&$oXXXXoo$$$$oo$$o$$ooXXoXXXXo  XXXXX.X..X*X*.*..%#@@ &=$......X   ....X.XX........ .  .",
"        ... oXXXXXXXXXXXooo ooooo#OO+#$&$oX$$$$ooo XoXXoXoXXX$ooooXXo  XXXXXXXXX*X......*%#@@*&=o....X...... ............... .  ",
"     . ...XXXXXXXXXoXoXo  oo$oo$X%#@+#$=&XoXXX.. ooooX.XXXXX..*X**$   XXXXXXX..XX*X*.*..*##@@*&&............... ..... . . . ..  ",
"    . ... X XXXXXXXXXo   o oooo$X%#O@%$=&oooo  oo$$$$$$ooo$ooooXo.X$$oXXXXXXXXX*X.....*X*#O@O*&$.......... ..............  ..   ",
"      ..XXXXXXXXXXXoXo  o oo$o$oX%#O@%$&&oooo oooo$$oooo$ooo$oooXo oo$$$XXXX.X.X...*....%#@@#.&$........................        ",
" o       X  XXXXXXXXXo o ooo$o$$o%#O@#$&&& o oooooooo$$$$$$$$ooo   XXXo$$XXXX.X.....*.X*##@@#o$$.. .......................      ",
"...o  X.... XXXX XooooX .XoooXXX*##O@#$&&$$$$ooo$$$$$$oooooooXXX  ooooXXo&oXXXXX .XXXXX%##@@#oo o. . ..*.*.*...... .......  ....",
"############%%%%*%%%%#%%%%%%%#%###OO@%$oo**%%%%*%%%%%%%##########%%%%#%%%%#%%%%%%%#%######O@#%.*%%%%%*%*****%%%%#%%%%%%**%%%####",
"OOOOOOOOOOOOOO##O#O#O#O####O###O#O#@@#X.*%#####OOOOOOOOO#OOOOOOOO@OOOOOOOOOOOOOOOOOOO#OOO#@@O%%%###OOOOOO###OOOOOOOOO#OO##OOOOOO",
"OOO@@O@O@@O@OO@OOOOO@O@O@@@O@O@O@O@@@O##OOOO@OOOOOOOO@O@@O@@O@@@@@@@@@OOO@OOOOOOOOOOOOOOO@@@@OO#OOOOOOOOOOOOOOOOOOOOOOOOOOOOOOOO",
"@+++++++++++++++@@++@+++++++++++++++@+@@+++++++++++++++++++++++@+++++++++++++++@+@+@@+@@++++@+++@@+@+@+@+@@@@@@@@O@@@@@@++++@@@O",
"++@@@@@@@++@++@@@@@@+++++@@@@+@@@@O@@@@@@@+++++++++++++++++++++++++++OOOOO@@+@++++@@++++@@@@@@@@@+@++++++++@+@++@++++++++@@@++++",
"####%%%%#@++@%%%%%#######%%%%%%%%%%%%%%%%%%%%%%%%%%%*%###O######O++@%******%%%%%%%%*%%%%%*****.**%%%%%##OOO########OOOO###%####O",
"ooXX..***O++#.***....oooooXXXoX*XXX.XXXXXooooo$$ooooXoooXX.....*%@+#***. o$$$&$$$$$$$$$$$ooo$o$$$$$$$$$$$$o$o$$oo$..oXooooo$$$$$",
"&&$$$$o.%#@+#.*.$$$$&&&&$$$$$o$X$$$$$$$&&&&&=&=====&=&&&&$&$$$o*%@+%. $================&&&&&&&=&=&=&&&&&&&&&&&$&=$$&$$$$&&&&&&==",
"&&$$$$$.%#@+#..&&ooo XXXXXXXXXX..XXX..Xoooooo$o$$$$$$$$oooo$oo.##@+% $=====$&&&$$$$$$$&$$$$$$$$$$&$&&&&&&&&&&&&&.$$o$$$$$$$$$&&&",
"  . ..o*%#@+#*$$...X .XXoXXXXXo*oXXXXXXX     oo  oooXXXo    Xo*#O@+%X$==&.  .... ....XXXXXX.  . ....... .       **........XXoooo",
"   . . *%#@@#.X*..X   XoXoXXXoXXoXX X o X Xo oooooooooo    XXo%##@+%o$=&        ..XXXXXXX       . X........ ....o%X..X.X..X..XXX",
"     .o%%O@@%....X..  XXXXoXXoXXXX XX X o XXo oo o oo    oX Xo%#O@@%o$=&      . .XXXXXXXXX    XXXXXXX.XoX. . ...o**X.X*X.XX..XX ",
"   . .X%%O+@%X.......XXXXXXoXo.Xo XXo    XoXoooo$oo oo   XXXXX%#O@@%o$&$       . XXXXXX X    XXXX.X.X.$  .... ..X**XXXX.XX....  ",
"    . X%%O+@%X*..... X XXXXXXo*Xoooo     Xooooooo o o   XXXXX.%#O@@% $&$      .  XXXXXXXX X XXXXXXXXXXX...   ...XX%XX.XXX.X.X.. ",
"     oX%%O+@%X*.... .XXXXoXoXoo*o o     Xo$ooooooooo  X XX X  %#O@+%.$$o       XX.XXXXX XX XoXoXX XX XXXXX .  ...o**XXX.X.....  ",
"      o%#O+@%o*..... .X XXooXXo..oo o  XXooooooooo oo   XXX .o%#O@+%X$$      .X. X.XXXXXX XXoXX XXXXXXXXX    .XX.oX*XXXX.....   ",
"    ooX%#O+@%oX.......XXXooXoooo*o o   ooooXoooooo o  X X  .. %#O@+% $$  . . X.XXX .X X XXXoX XoXXXXXX.X     .X.Xo**XXXXX.      ",
"     oo%#O+@%oo.......XoXXoooo oX o  ooooooXooXooo o  oo     o%OO@@% $&     X XX.XXXXXXXXXXoXoXXXoXXXXXX    .XXXXX%XX...X       ",
"   o oX%#O+@*  . ...XXXX   oo  $X    ooXoXooXooXooo   o     .$%OO+@%X$$. . XXXX.XX.X X   X XoX X XXXXX      X.XXXX*X.....       ",
"   o o.##O+@* $. .....X  X     $*   oooXoXooooooooooooo   o .o%OO+@*o$$.  XXXX .X.XXXX   XXXXXoXoXoXXX       XXXoXXX.X..        ",
"  o  o.##O+@* $. ....   o   o o. o  oXoXooooXooXooooo         %OO++%*&& .XXXXXXXXXX..   XX XoXoXXXXXX        XXXo*XX....        ",
" o  o$.##O+@%o$. . ..X    o  o$*   oooXXooooooooooooo     .. o*OO+@%XX$$o.X XXXXX....  X XXXXXXXoXXX      o XXXXX*X....         ",
" o o o*##O+@%o$. ...X  X o   $X o ooXooooooo$ooooo o       .  *OO+@%o$$XXoXXXXXX.. .    X.X XXoXXXX         XXXXoX*X..  .       ",
"o o  $*##O+@*$o.X...X X      $X.o ooooXooo$oo$oooo     o   oX .OO++%o$&oXXXXXXX.XX.. . .  XXXXXXXX        XXXXXXX$*...          ",
"oo o o*##O+@*$o......  .       .ooooXoooooo$oo$oo           XXXOO@+#o&o.Xo*ooXXXX. o  XX XXXXXXXXX        XXXXXXXoX* .         o",
"o o  $*##O@@%$$....... ..     $.ooo ooooooooo$o          . XXoX#O++#o&oXXXo..XXXX.o...   XXoXXXXX        Xo$o.XXX.$**        $ o",
"oo   $*##O@@%$$..... ....     o..o oooXoXooooo            ooooX#O@+#o$XXXXXoXX  X  *.  X XoooooX        X.o$*.XXX.$&% .       oo",
"oo o o*##O@@%$X....... ..      o*ooXXXXoXXoo          o  o XXXX#O@+#o$XXXXX oXoX      .  Xo oXo o      .XXXXoXXXX.o&.        $ $",
"$oo  o%##O@+%o$..X...... ...   ..X.X XXXoX              oooXXXX%O@@%o$XXXXXXXXo         o    oo o     XXXXXXXXXXX.o$.         oo",
"  o  $%##O@+%o$o.... X.       o*XoooooooX  .           X.XoXXXo%O@@%o$XXX X  oX         ooooooo   o  .XXXXXX.XXX..$X...      $ $",
"$o$oo$%##O@+#.*XoooX.X..*******#%%%%%**Xoo       ..  oXXoXXooo*##@+%o$oooooo oX     oooo   ..  ooo   XXXXXXXXXXXX $ooo       o$$",
"%%%#%####O++#*%%%%%%#######O##@OO#O#####%%%%%%%#####%#%%%%%%#####@@%.***%****.%. .**%%%%%%%%%%%%***.************%*%%.*X *..   *%",
"#######O#O+@@#%#OOOOOOOOOOOOOO@OOOOOOOO#O#O#O#O#O#O#OOOOOOOOOO##O+@#.*%######OO####O##########%%#########O########OO@OOOOOOOOO##",
"OOOOOOOOOO+@@OO@@@@@@@@@@@+@++++++++++@@@@@@@@@@@@@@@@@@+@+@@@@O@+@@#OOOOOOOOO@OOOO#OOO@@@@@@@OO#####O#OO#OOOOO#O#OOO@OOOOOOOOO@",
"@@@@@+@@@+@@@@@@@++++++++++++++++++++++++++++++++++++++++++++++++++++++++++@@+@O@O@@@+++++++@++@+@@@@@@@O@@@+@@@@@O@++++@@@@@+++",
"O@@+@++++@++++++@@@OOOO@@++++@+@@O####OO@++++++@@OO@++++++++++++++@+++++@@@++++++++++@OOOO#OOO@@@++++++++++@@@@++++++++++++++@@@",
".*%##O@@@@@OO##%**...***%#####%%****%**%%#@++O#%%%%%%%######%%%%%%%*%********%#O@+O#%%.    ..***%%#OO@@@@OOO#%O@@@@+@@O%%###%##%",
"=&&$$ .*%%%%.oo$o$o$$$$$$$$  o$ooo     ..*#+@%%%%**.Xoo$$$$$$$$$$$$$$$$$$$$$$$$$#.$$$$$$$$o$oooooXoXX***.XXX*%%@@+@@#%*...   o$$",
"=&&&&&&&&$$&&&&&&&&&=&&=&=&=&&&&&&&&$$o.*%O+@#%%.$&&&&&&&&&=&=&=&=&&&&&&&&&&=&=oX=&&====&&&$$$&$$$$$$$o$$$$&X%#O+@+O*. $$$&&&&&&",
"&==================&&$$$o$$$&&$ooo    o.#O@+@%%X==&o$&&&&&&&&=&&&$$$$o$oo$$$$=o%=======&$oo XXo$$&&&&$$$&&&$o#OO@+@%* &=o$o oo$&",
"   $$&&&&&&&&&$$$o ......*.......... . .#O++O%%$&o.XXXXXXX.XXo            ...o*#$$$$$o .   XXXXX.XXXoooooo .o*OO@+@**o=$ o o    ",
"             ........*.*.X.X*X........ .#O++O#%$oXXXXXXXX oo       oo     XXX.$%*.XX.     XXXX.XXX.XXX.X.....o#O@+@%*$$ oo  $   ",
" o         ..........X.X*XXXX.X... . . .#O++O#%..XXXXXX   oo     o o o   XXXX.o*%X...    XXXXXX.XXXXX.........*O@++%*$&         ",
"o              .........X...X.X .. . . .#O++O#%..XXXXXXX XXo   o$ $ oo   XXX.XXX%X.......X.XXXXXX..............#@++#.$&o o     o",
"                ....*.*X*..X..    .  . .#O++O#%oXXXXXX oooX     o oo o  XXX.XX*&%*......XXXX.X.XXX............ #@++O.$=$      $o",
"   o          .....*.*...XX...    ..   .#O++O#%oX.XXX ooooXoo   o$ ooo  o .X.X*$%* ....XXXX.XXXXX....... ......O@++@.&&$      oo",
"  o          .......*...X.....   . . . .#O++O%*oXXXXooooooooooooo$$oooooX .....o% .....XXXXXXXX.............. *O+++@*&&&     o o",
" o        o   .X.*...*.X..... ...    . .#O++O%*X.XXX o$oooo oooo$oo$oooo ..... *% .....XXXXoXXXXX..... . .... %O++++#$&&o   oo  ",
"         o    .....*.............  . ..*#O++O%*X.X.XXooo$oooo$oo$$$$$ooo .....o%.. ..X.XXoXoXXXX..... . . ...o%O++++O$&&$       ",
"      o    .  ...*......................OO++O%.X..XXoooo$ooo$o$$$$$$ooo    .. X% .. . XXoXoXXXXX.....   .... o#O++++#$&&$.      ",
"oX    ooX  ........*..*................*#@++O%....XXooooX$o$oo$$$$$$$oo    ..o%* .. .  XoXXXXXX.X.... . .... *#O++++#&&=o.    oo",
"XX  XXoX.............. ...X..........*.*O@++O%.*..XXoXoXoooooo$oooo$oooo   . .# ....  . XXXoXXX......X  .... *#O++++#&&& .  oo  ",
" XXXXoX........... . ... XXX.X...*.*...*#@++O%**..XoXXXXoo$ooXoo$oooo$ooo   . %. .. .   o XXXX.*...XXXX .... .%O++++%&&&.  ooo X",
"X.XX X..*..... .. . . . oo.X.........*.*#O++O%*..X.XXXXXooXooooXo$ooooooo  .. X% ...   o. XXX.....XXoXX.......%#+++@*$&$.  oo  X",
"X.XXXX.*.*.*..X    . .   X........*....*#O++#%.*...X..ooo$o$ooooXooooooo     .o%* ..  oooo . X.X. X oXX ..... %O+++OX$&o.oo  .Xo",
"XXXXXX..***.. .    .  oX..XX.........*.%#O++#**..X.XXXoooo$$o$oooXo$ooooo  . . .% ... ooooo  o  . oX X .....* %O+++OX$&..XX XXXX",
".XXXX..........   .    ...X.....*.*....*#O++#*.**.X.XXXo$o$ooooXooXooooo     ..o%* .. oooooooX.X .XoooX...... %O+++#X$$..XX.XXXX",
"XXXXXXX..X.X...        .....*...........#O++#**.XX.XXXo$o$oooo  oo   X      .   .#... ooooo  o.. .Xo   ...*.. *O+++%X$o....XXXX.",
"XXXo X..X.......  .   ..XX...X.*.. ...*.#O++#***..XXXoo$o$oo                 . .o#* .  ooo  o .... ... .......*O++@%X$X...XXXXXX",
"XXXXXX. ....... .     .XXX.X.XXX  ..... %O++#**....Xoooooooo   X X X       .   .o%% .   oo  o . . ..........* %O+++%X$....XX.XX.",
"XXXXX...........     XXXXX.X..Xoo. .....%O++O***....Xooo ooo                     o* . .       ... ............*O++@%X$...XXXX.XX",
"X XXX. . .......     X..XX.X..XXX  .....*O@+@%**.... .  o        X..X X   .      o. .   .  ........ . ........*O+++%X$..XX.XXXXX",
"XXXX.............    .XX..X......... ...*O@+O%**..   .      ....X....XX X   .    ..    .  . ...... . .........X#++@%.o.*X....X.X",
"XXXXXXX.X ...... .....XX..X............ %O@+O%**.              XX...XXXX        $X. ..      .  .           ..X*O++@%.$X....XooXX",
"###%%%**%*%%*****..Xo..*****..*...   ..%OO++O%******......*******......*.******%%#O####%%******%%%%%%******..%OO@+@%*.******%%##",
"OOO#O#OOOOOOOO#####%**%######%%%########OO@+@#OOOOOOO@OOOO@O@@@@@O##OOOOOOO@O@OOOO+OOOO@OOOOO@@O@@@O@@@O@OOOO@OO@+@#OO@OOO#OOOOO",
"@@@@@@O@O@@@OO@O@OOOOOOOOOO#OOO@O@O@OOOOO@@@+OO@O@@@@@@+@+@@@@@+@++++@+@+++@+@+@@@++@@+@+@+@+@@@+@@+@@@+@@+@+@+@+++@+@+++@@@@@@@",
"++@++++++@@@@@@@@+@@O@@@@@@OOO@@@@@@@@@@@+++++@@+@@+++++++++++++++++++++++++++++++++++++++++++++++++++++++++++++++++++++++++@+@+",
"@+@@@@@@++++++++++@+@+++++++@@@@@+++++@@@@@@@@++++@+@++++++++++++++++++++++++++++++++++++++++++++++++++++++++++++++++++++++++@++"
};